<svg xmlns="http://www.w3.org/2000/svg" width="56" height="56" viewBox="0 0 56 56"><defs><mask id="c2tmb" width="2.01" height="2.01" x="-1" y="-1"><path fill="#fff" d="M3.8 1.8h48.4v48.4H3.8z"/><path d="M28 2c13.255 0 24 10.745 24 24S41.255 50 28 50 4 39.255 4 26 14.745 2 28 2z"/></mask><filter id="c2tma" width="78.2" height="80.2" x="-11.1" y="-13.1" filterUnits="userSpaceOnUse"><feOffset dy="2" in="SourceGraphic" result="FeOffset1035Out"/><feGaussianBlur in="FeOffset1035Out" result="FeGaussianBlur1036Out" stdDeviation="1.9600000000000002 1.9600000000000002"/></filter></defs><g><g><g filter="url(#c2tma)"><path fill="none" stroke="#212121" stroke-opacity=".35" stroke-width=".4" d="M28 2c13.255 0 24 10.745 24 24S41.255 50 28 50 4 39.255 4 26 14.745 2 28 2z" mask="url(&quot;#c2tmb&quot;)"/><path fill="#212121" fill-opacity=".35" d="M28 2c13.255 0 24 10.745 24 24S41.255 50 28 50 4 39.255 4 26 14.745 2 28 2z"/></g><path fill="#fff" d="M28 2c13.255 0 24 10.745 24 24S41.255 50 28 50 4 39.255 4 26 14.745 2 28 2z"/></g><g><path fill="#6c6c6c" d="M24.294 36l9.68-10-9.68-10-2.307 2.344L29.4 26l-7.412 7.656z"/><path fill="#212121" d="M24.294 36l9.68-10-9.68-10-2.307 2.344L29.4 26l-7.412 7.656z"/></g></g></svg>